<?xml version="1.0" encoding="UTF-8" standalone="no"?>
<!DOCTYPE svg PUBLIC "-//W3C//DTD SVG 1.1//EN"
"http://www.w3.org/Graphics/SVG/1.1/DTD/svg11.dtd">


<!-- Page 1 -->
<svg x="0" y="0" width="866" height="866" viewBox="0 0 866 866" version="1.1" xmlns="http://www.w3.org/2000/svg" xmlns:xlink="http://www.w3.org/1999/xlink"
style="display: block;margin-left: auto;margin-right: auto;">
<defs>

<style type="text/css"><![CDATA[

.g0_1{
fill: #767952;
}
.g1_1{
fill: #9DA264;
}
.g2_1{
fill: #E7E8E8;
}
.g3_1{
fill: #231F20;
}

]]></style>

</defs>
<path d="M0,0
L0,866
L866,866
L866,0 Z " 
fill="#FFFFFF" stroke="none" />
<path d="M726.9,618c-5.1,-6.6,-10.7,-12.8,-16.7,-18.6c-.3,-.3,-.7,-.7,-1,-1c-2.4,-2.4,-4.1,-4.2,-4.5,-4.9c-.4,-.5,0,-1.3,.6,-1.3c4.2,-.5,17.5,-1.4,19.9,-1.6c1.8,-.2,2.8,.2,4.2,1.6c11.4,11.5,21.3,24.5,31.9,36.8c10.8,12.5,20.4,25.9,29.1,39.8c8.7,13.9,16.4,28.4,23.5,43.3c3.5,7.3,5.2,15.3,2.2,23.6c-2.7,7.4,-9.1,10,-15.7,12.4c-1.8,.6,-3.7,.8,-5.5,1.1c-4.9,.8,-6,-.9,-5.4,-5.6c1.2,-8.6,.9,-17.3,-2.4,-25.7C776.5,691.2,761.3,667.2,745.3,643.5C738.6,633.7,733.2,626,726.9,618Z" class="g0_1" />
<path d="M687.4,591.7q5.2,-.2,7.9,2.2c3.3,2.9,6.5,5.9,9.5,9c21.4,21.4,37.4,47,53,72.8c8.9,14.8,18,29.4,23.2,46c.7,2.1,1.1,4.3,1.5,6.3c.7,3.7,.9,7.4,.4,11c-.1,.4,-.1,.7,-.2,1c-1.1,5.9,-4.6,7.4,-11.9,5.5c-10.1,-2.7,-11.7,-5.8,-14,-16.1c-2.4,-10.5,-8.3,-19.8,-14.2,-28.8c-8.2,-12.7,-16.5,-25.4,-24.9,-38c-8.8,-12.9,-17.6,-25.9,-26.6,-38.7C683.8,613.6,676.3,603.5,669,593.4c-.5,-.7,-1.5,-1.5,-.7,-2.3c.1,-.1,.6,-.1,1.3,-.1c3,0,11,.7,17.8,.7Z" class="g0_1" />
<path d="M695,491.3c.6,-3.7,2.3,-20.8,3.1,-29.1c.1,-.5,.6,-1.3,1.1,-1.4c.9,-.3,1.3,.5,1.6,1.3c13.4,22.2,20.5,63,19.8,62.6c-4,-2.1,-7.9,-4.3,-11.8,-6.5c-1,-.6,-1.1,-1.3,-.6,-2.2c3.6,-7.4,-1,-11.8,-5.9,-16c-2,-1.8,-4.4,-3.2,-6.7,-4.7c-1.2,-.8,-1.1,-1.6,-.6,-4Z" class="g1_1" />
<path d="M658,473.1c3.3,-10.7,5.1,-21.7,6.8,-32.7c1.6,-10.3,1.6,-20.6,1.8,-32.6c0,-.8,1,-1,1.5,-.3c6.1,10.2,10.6,15.5,16.9,27.7c3.1,5.8,6.2,9.1,7.3,12.7c2.8,9.6,-1.7,29.4,-2.8,40.1c-.3,2.7,-1.1,3.2,-3.5,1.9c-8.3,-4.6,-16,-10,-25.2,-12.8c-1.8,-.5,-3.6,-1.3,-2.8,-4Z" class="g1_1" />
<path d="M729.1,549.8c-53.6,14.7,-266.3,7.6,-343.6,-39.5c-7.6,-4.4,-8.6,-11.6,-7.2,-16.1c2.4,-8,4.9,-16.1,9.7,-23.2c1.3,-1.8,2.1,-4.7,4,-2.5c.7,.9,1.5,1.8,2.4,2.5c4.8,3.6,9.9,7,15.4,10.2c68.8,39.9,190.9,48.4,251.5,46.4c18,-.6,30.6,-2.2,34.8,-4.1c3.7,-1.7,8.3,0,11.4,1.6c7.1,3.6,13.9,7.6,20.8,11.6c5.6,3.3,6.2,9.5,.8,13.1Z" class="g1_1" />
<path d="M629.7,591c-1.9,-2.8,14.6,0,26,-1.2c3.8,.3,5.1,1.6,6.3,3.9c2.1,4,4.6,7.8,7.2,11.4c12.1,16.3,23.6,32.9,35.2,49.5c9.8,14.1,19,28.5,27.7,43.3c1.4,2.3,.1,2.8,-1.7,3.4c-12.7,3.8,-23.4,-.6,-32.1,-9.1c-14.8,-14.4,-27,-31.2,-38,-48.4C650.1,627.7,638.8,607.9,629.7,591Z" class="g0_1" />
<path d="M659.8,409c.3,16.9,-1.1,33.6,-5,50c-.8,3.4,-1.2,6.9,-2.9,10c-.4,.7,-1.4,1,-2,.4c-2.7,-2.2,-5.3,-4.4,-8,-6.6c-7.8,-6.2,-16.7,-10.9,-25.5,-15.6c-1.5,-.8,-2.1,-1.5,-1.4,-3.3c6.6,-18.7,8.5,-38.4,10.5,-57.8c1.1,-12,2.3,-24.3,1.1,-36.7c-.2,-1.2,1.4,-1.8,2,-.8c3.9,5.5,7.8,11.1,11.8,16.6c6.3,8.8,12.8,20.1,17.4,30c1.4,2.9,1.9,10.3,2,13.8Z" class="g1_1" />
<path d="M634.3,655.1C622.9,635.4,612.9,614.7,602.4,594.4c-.6,-1.1,-1.8,-2.3,-.9,-3.6c1,-1.5,12.4,-.7,16.6,-.9c2.1,-.1,3.7,.7,4.7,2.4c10,17.3,19.7,34.9,30.1,51.9c6.6,10.6,14.3,20.5,21.6,30.6c5.7,7.9,11.6,15.8,18.9,22.4c12.2,11,25.9,16.8,42.4,9.6c1.5,-.7,2.3,-.1,3,1c4.9,7.8,9,16,11.7,24.9c.5,1.6,-.3,2.7,-1.8,3c-7.1,3.6,-13.5,4.9,-23.5,5.6c-1.6,.1,-3.1,.1,-4.6,0c-17.1,-1.4,-30.5,-10,-42.4,-22.4c-18.3,-18.8,-31,-41.4,-43.9,-63.8Z" class="g0_1" />
<path d="M594,629.6c-8.1,-12,-16.1,-24,-24.1,-36.1c-.8,-1.2,-2.1,-2.9,-1.8,-4c.4,-1.6,14.9,-.2,20.4,-.2c4.2,.1,5.4,3.3,6.9,6.2c10.6,20.3,20.3,41,31.8,60.7c10.8,18.6,20.7,37.9,34.6,54.5C672,723,682.3,735.2,697,742.5c14.3,6.9,29,8,44.1,3.2c2.7,-.9,6.3,-3,8.3,-.6c2.4,2.8,0,10.4,-2.2,12.8c-9,9.9,-18.8,14.1,-26.7,14.7c-11.8,1.8,-20.5,0,-31.3,-7.1C680.3,759.7,672.6,752.2,666,743.8C628.2,695.4,602.3,641.8,594,629.6Z" class="g0_1" />
<path d="M572.6,421.3c6.8,-15.3,10.3,-31.6,10.9,-48.1c.8,-21,1.5,-42.1,-2.7,-63C579.3,294.6,577,286.6,574.4,277c-.1,-.5,.5,-.8,.9,-.5c1.1,1.1,2.2,2.2,3.2,3.3c4.3,4.8,7.4,9.8,11.2,14.2c8.3,9.7,13.2,18.4,22.2,30.5c1.1,1.5,2,3.1,2.8,4.8c.9,1.9,1.2,3.3,1.6,5.4c3.1,16.4,4.3,32.9,2.3,49.6c-1.7,14.1,-3,28.3,-5.8,42.3c-.9,4.7,-2.7,9.3,-4.1,13.9c-.5,1.9,-1.4,2,-2.7,1.3c-.2,-.1,-.3,-.2,-.5,-.3C595.4,435.1,585.1,428.8,574,424.1c-1.2,-.5,-2.1,-1,-1.4,-2.8Z" class="g1_1" />
<path d="M561.1,593.1c8.7,12.3,17.2,24.7,25.7,37.1c1.5,2.1,-.3,2.9,-1.7,3.8c-15.2,9.4,-32,15.2,-48.8,20.8c-20.8,6.9,-36.5,11.1,-57.5,13.4c-1.4,.1,-2.8,.3,-4.2,.4C348.9,679.8,261.3,614.5,257,611.1c-2.4,-1.9,-4.7,-2.2,-7,-1.2c-2.5,1,-2.6,3.4,-2.4,5.9c.1,1.8,1.2,4.7,-.4,5.2c-2.2,.6,-3.6,-2.1,-5.2,-3.6C223.5,598.7,211.5,575.8,200.1,552.6c-.8,-1.6,-1.6,-3.2,-2.4,-4.7c-1.3,-2.8,-2.7,-5.6,-4.1,-8.4c-6.2,-12.7,-12.3,-25.4,-18.5,-38.1c-2.3,-4.6,-4,-9.4,-6.1,-14c-.8,-1.7,-1.6,-4.2,-4,-3.6c-2.4,.7,-4.9,11,-6.8,11.1c-2.1,.1,-2.3,-3.6,-2.9,-5.7c-8,-27.3,-12.4,-55.2,-13.6,-83.6c-.9,-21.3,-.3,-42.6,.7,-64c1,-18.5,3.2,-36.9,5,-55.4c.7,-6.1,.4,-7.4,1.5,-13.5c.5,-2.7,3.5,-5.8,6,-6c13.5,-.9,26.3,-3.2,39.6,-5c3.1,-.5,5.8,.6,8,2.9c17.1,18.2,24.6,28.8,60.3,41.6c.2,.1,.4,.2,.8,.4c2.8,1.2,10.4,4.8,9.1,9.9c-2.1,9.2,-5.9,27.4,-8.6,42.2c-2,10.7,-3.5,19.7,-3.5,22c0,15,-1.7,19.2,5.5,44.5c8.9,33.6,25.7,60.3,46.5,81.4c57.5,58.2,145,73.8,178.7,76.6c1.3,0,3,.1,5,.3c15.3,1.3,46.7,5.4,53.8,4.7c4.9,-.5,8.5,1.4,11,4.9Z" class="g2_1" />
<path d="M577,336.8c1.9,26,-.5,51.9,-8.2,77.1c-1.1,3.7,-2.6,5.4,-6,4.4c-.6,-.2,-1.3,-.5,-2.1,-.9c-8.6,-4.5,-17.6,-8.2,-26.4,-12.3c-1.5,-.7,-2.9,-1.2,-1.8,-3.4c5.5,-11.1,6.5,-23.3,7.8,-35.3c.7,-7.2,.8,-14.4,1.1,-21.6c-.1,-19.9,-.2,-39.8,-2.9,-59.5c-1.5,-11,-1.6,-22.1,-4.4,-32.8c-1.6,-12.5,-6.7,-20.3,-8.5,-24.3c-.7,-1.3,-.9,-2.2,-.6,-2.8c-.3,-1.2,7.6,4.9,8.8,6c.7,.7,1.3,1.3,1.8,1.9c3.9,4,5,5.8,10.4,12.3c27.8,29.5,29.3,69,31,91.2Z" class="g1_1" />
<path d="M531.4,379.4c-1,6.9,-3.5,13.5,-5.5,20.1c-.6,2,-2.2,1.2,-3.3,.7C509.7,393.5,496,388.9,482.3,384.4c-1.9,-.6,-3.8,-1.2,-5.8,-1.8c-12.6,-4.1,-25.3,-8,-38.1,-11.6c-13,-3.8,-22.2,3.5,-31.2,9.6C387.3,394,373,407.9,354.9,429.4c-31.7,36.3,-1,61.8,5.4,70c4.7,6.1,8.8,7.8,13.6,11.3c81.7,60,310.5,56.9,351.5,48.8c9.1,-3.5,23.8,3,26.6,12.6c1,3.4,-1.4,6,-4.6,7.1c-11,3.8,-22.4,5.2,-33.9,5.2h-9.8c-5,.5,-17.9,.5,-34.1,.3c-39.4,-.5,-98.5,-2.4,-111.4,-2.7c-12.1,-.2,-46.2,-3,-61.4,-4.4c-2.7,-.2,-4.9,-.4,-6.1,-.6C385.9,562.1,334.7,520.7,317,502.8c-3.3,-3.3,-5.4,-5.8,-6.5,-7.1C296.9,478.5,286.7,459.4,278.7,439c-4.2,-10.9,-9.2,-21.3,-10.3,-33c-1.4,-15.5,-1.7,-30.9,1.4,-46.1c.4,-2.2,1,-4.3,1.5,-6.5c3.6,-13,5,-20.4,8,-33.6c.2,-1.2,1.4,-6.4,5.7,-6.4c19.1,1.7,34,-5.2,51.6,-11.9c15.6,-5.9,30.2,-13,44.1,-22c15.5,-10,29.7,-21.8,42.8,-34.8c16.1,-16,31.3,-32.9,46.2,-50.1c2.6,-3.1,4.5,-7,6.5,-10.6c.7,-1.2,1.2,-1.2,2,-.6c10.1,6.9,31.2,24.2,42,46.6c2.5,5.1,4.4,10.6,5.6,16.2c5.9,26.5,7.7,53.5,8.1,80.6c.2,17.7,0,35.1,-2.5,52.6Z" class="g0_1" />
<path d="M474.8,387.9c7.5,2.3,12,4.7,19.6,7.2c18,6,34.8,14.6,52.1,22.1c4.7,2.1,9.5,4.3,14.1,6.5c14.1,6.8,27.7,14.3,41.2,22c.5,.3,1,.6,1.5,.9c11.4,6.5,23.1,12.4,33.6,20.4c1.1,.9,3.8,2.3,4.8,3.3c1.8,1.7,3.7,2.6,2.8,5.1c-.9,2.4,-4.6,2.6,-7.4,2.9c-2.1,.3,-4.2,.4,-6.3,.5c-1.8,.2,-3.5,.2,-5.3,.1C506.5,476.5,445.3,437.8,430.3,422.7c-2.8,-2.8,-2.8,-7.4,.1,-10.1c6.3,-6.3,12.8,-12.3,20.1,-17.6c3.2,-2.3,6.5,-4.4,9.8,-6.6c3.1,-2.1,7,-2.6,10.6,-1.6c.2,0,.3,.1,.5,.1c1.2,.3,2.3,.7,3.4,1Z" class="g1_1" />
<path d="M688.7,518.6c-9.1,2,-18.3,3.2,-27.6,3.4c-1.7,.1,-3.3,.1,-5,.1C549.9,521.3,453.5,498.7,412.5,476.4c-5.8,-3.2,-10.5,-6.4,-14,-9.5c-3.5,-3.2,-4.2,-8.6,-1.3,-12.4c.1,-.1,2.1,-3,2.2,-3.1c11.6,-16.6,10.8,-14.7,18,-24.7c2.7,-3.9,5.1,-2.7,7.3,-.4c3.8,4.2,7.9,8.1,12.5,11.3c15.9,10.9,48.7,30.3,132.6,44.6c17.9,2.7,46.6,3.7,67.2,3c1.9,0,3.9,-.3,5.8,-.7c2.3,-.6,4.5,-1.6,6.7,-2.7c4.1,-2.1,8.2,.6,11.5,2.2c8.9,4.5,17.4,9.6,26.3,13.9c4.7,2.3,8.9,5.3,12.6,9.1c3.4,3.4,2.7,5.9,-1.2,8.4c-1.9,1.1,-5.7,2.2,-10,3.2Z" class="g1_1" />
<path d="M470.1,762.8c-4,.4,-8.1,1.3,-12,2.7c-8.4,3,-15.3,6.3,-16,3.9c-1,-3,-.6,-5.3,2.6,-6.7c11.3,-5,23.1,-6.6,35.2,-6.9c.3,0,.5,0,.7,0c9.4,-.6,9.5,-.7,9.9,-12.5c-.6,-13.5,-.2,-49.7,-.4,-60.4c-.1,-1.7,-.4,-4.1,1.1,-4.1c3.5,-.1,8.1,-1.5,10.9,-1.5c1.1,-.1,2,.9,1.9,2.1c-1.1,19,-5.2,44.1,-6,62.8c-.2,3.4,.3,12.9,.3,16.3c0,1.3,9.8,1.9,18.8,3.5c4.1,.7,8.1,1.9,12,3.4c4.4,1.8,11.7,4.4,12.2,6.6c.4,2.1,.9,4.9,-2.4,4.3c-6,0,-27.9,-9.9,-40.3,-10.3c-2.7,-.1,-5.8,.9,-8.5,2.7c-10.2,7,-30.4,28,-32.8,26.8c-1.3,-.6,-2.6,-1.3,-2.7,-3.2c-.3,-2.5,16.5,-19.6,24.8,-24.9c.6,-.4,8.7,-6,-2.3,-4.7c-2.4,-.1,-4.4,-.1,-7,.1Z" class="g3_1" />
<path d="M433.9,683.3c2.3,.5,3.6,3.1,2.6,5.4c-4.6,11.8,-21.6,43.3,-29,61.6l-5.8,-2.6c24.2,-56,20,-65.6,22,-65.6c2.7,0,6.9,.6,10.2,1.2Z" class="g3_1" />
<path d="M395,762.8c2.5,-5.4,4.7,-10.4,6.7,-15.1l5.8,2.6c-1.8,4.4,-3.7,8.7,-5.5,13.2c-.1,.1,-.2,.2,-.2,.4l-6.9,-.8c0,-.1,.1,-.2,.1,-.3Z" class="g3_1" />
<path d="M401.1,436.6c-10.5,14.3,-20.3,29.4,-26.2,46.5c-1.7,4.8,-2.2,7,-3.7,11.8c-.1,.3,-.5,1.3,-.9,2.4c-.3,1,-1.6,1.3,-2.5,.6c-1.1,-1.1,-2.5,-2.5,-2.7,-2.8c-5.1,-6.7,-10.9,-12,-15.3,-22.3c-3,-7.1,-2.8,-15.1,.3,-22.2c3,-6.9,7.1,-13.3,11.6,-19.3c15.8,-21,36,-37.4,58.1,-51.4c2.7,-1.7,8.4,-3.2,11,-3.1c8,.5,15.6,2.9,23.3,5.1c.5,.2,1,.7,1.5,1c-.4,.5,-.8,1.1,-1.3,1.4c-22,13,-38.3,32.1,-53.2,52.3Z" class="g2_1" />
<path d="M362.9,807c.6,-5.8,10.2,-20.4,19.6,-27.5c.8,-.7,2.2,-1.9,2,-2.5c-.4,-1.4,-19.4,3.8,-29.8,8.5l-4.8,-4.9c1.7,-.7,3.4,-1.5,5.1,-2.2c11.3,-5.2,23.2,-8,35,-11.3c1.4,-.5,4,-2.5,4.9,-4l6.9,.8c-.5,1.1,-.8,2.4,1.2,2.7c10.4,1.4,20,5.9,29.9,9.2c2.1,.7,3.9,1.7,4,4.2c.1,1.5,.1,3.5,-1.4,4.5c-2,1.2,-21.9,-8.6,-30.8,-9.7c-6.1,-.6,-13.3,4.8,-17.5,8.3c-7.8,6.5,-10.9,13.4,-16.2,22.3c-.7,1.1,-1.5,2,-2.4,2.9c-1.3,1.5,-2.8,1.7,-4.3,1.1c-.9,-.4,-1.4,-1.4,-1.4,-2.4Z" class="g3_1" />
<path d="M352.1,786.8c-4.1,2.2,-11.5,7.6,-16.6,8.4c-1,.1,-2,-.5,-2.2,-1.5c-.4,-1.8,.4,-3.6,1.9,-4.8c4.5,-3.6,9.6,-6,14.7,-8.3l4.8,4.9c-.9,.4,-1.8,.9,-2.6,1.3Z" class="g3_1" />
<path d="M247,200.5c-.4,4.2,.5,6.2,2.7,8.4c2.9,3,9.3,3.2,12.8,1.6c2.8,-1.3,4.4,-4.5,5.3,-8.1c.5,-2.1,0,-4.3,-1.1,-6.2c-1,-1.6,-2.1,-3,-1.7,-4.9c1,-4.8,4.7,-2.3,6.7,-1.3c9.1,4.5,14.3,15.9,15.7,27.2c.9,6.6,.1,13.4,-2.3,19.6c-1.8,4.6,-4.2,8.2,-8.3,12.6c-7,7.6,-19.5,11.1,-29.6,11.2c-.6,0,-1.2,0,-1.6,0c-12.2,-.8,-28.3,-11.1,-33.8,-27.5c-2.9,-13.9,-1.9,-25.4,7.4,-35.3c6.5,-7,14.5,-11,23.9,-12.1c3.2,-.3,6.7,-.5,8.8,2c1.4,1.7,1.9,3.1,-.3,6c-.3,.4,-.6,.7,-1,.9c-2,1.4,-3.4,3.5,-3.6,5.9Z" class="g3_1" />
<path d="M461,194.2c-15.5,17.5,-31,35,-48.1,51c-14.8,13.8,-30.4,26.3,-48.2,36.3c-13,7.2,-26.6,12.9,-40.6,17.9c-8.8,3.2,-17.6,5.7,-26.7,7.1c-6.3,.9,-12.8,-.6,-19.1,-2c-4.3,-.9,-8.5,-2.1,-12.7,-3.6C254.3,297,243.8,291.2,233.8,284.4c-7.7,-5.2,-15,-11.4,-22,-19.9c5.8,3.2,10.2,6.3,14.9,8.2c15.2,6,30.4,6.4,45.8,.5c9.4,-3.6,18.1,-8.1,23.5,-16.7c7.4,-11.8,10.8,-25.1,10.2,-38.7c-.9,-20.3,-10.3,-35.6,-28.1,-44.6c-7.1,-3.6,-18,-5.4,-25.9,-5.5c-13.5,-.1,-23.4,1.9,-35,9c-12,8.8,-22.5,21.4,-24.7,35.9c-1.4,9.5,.2,18.5,2.8,28.3c-5.8,-4,-9.6,-9,-13.6,-13.6c-8.9,-10,-18.6,-18.8,-32,-22.3c-3.6,-.9,-3.9,-3,-3,-5.8c3.6,-12,8.1,-23.4,13.8,-34.2c5.6,-10.8,12.4,-21,20.8,-30.4c10.2,-11.5,20.2,-23.1,32.5,-32.5C229.6,90,245.9,78.7,264.6,71c15.3,-6.5,21.5,-6.5,22.2,-6.5c-.2,.7,-.2,1.5,-.5,2.2c-1.8,4.5,-3.7,9,-5.6,13.4c-.8,1.8,-.8,3.4,.5,4.6c1.5,1.3,3.4,1.1,4.7,0C299.5,73.3,316.2,71.5,332.9,70c1,-.1,5.5,-.3,5.9,.2c.9,1.3,-8.9,8,-10.9,10.9c-2.1,2.9,-1.1,4.9,2.4,5.3C348,88.2,364,95,380.2,101.6c24.1,9.7,44,25.3,62.7,42.8c8,7.5,27.9,30.8,27.3,34.7c-1,5.9,-5.3,10.7,-9.2,15.1Z" class="g1_1" />
<path d="M69.3,250c40.4,-4.2,79,-8.1,117.9,3.8c.6,.2,.6,1.1,0,1.3c-10.1,2.9,-21.3,4.7,-32.7,5.6c-9.1,.7,-18.2,.9,-27,.6C101.4,260.5,78.1,256,69.1,251.2c-.5,-.3,-.4,-1.1,.2,-1.2Z" class="g3_1" />
<path d="M171.4,225.7c6.2,6.3,12.1,13.1,18.9,20.6c.5,.6,0,1.5,-.8,1.2c-21.2,-6.8,-41.7,-9,-62.5,-8.6c-20.8,.5,-41.5,1.7,-63.1,5.5c-.8,.2,-1.3,-.9,-.7,-1.4c4.8,-4.3,10.3,-6.8,14.5,-9.5c17.1,-9.4,21.5,-12.8,45.1,-20c21.9,-7.5,34.9,-1.7,48.6,12.2Z" class="g3_1" />

</svg>
